<?xml version="1.0" encoding="UTF-8" standalone="no"?>
<!DOCTYPE svg PUBLIC "-//W3C//DTD SVG 1.1//EN" "http://www.w3.org/Graphics/SVG/1.1/DTD/svg11.dtd">
<svg width="100%" height="100%" viewBox="0 0 376 373" version="1.1" xmlns="http://www.w3.org/2000/svg" xmlns:xlink="http://www.w3.org/1999/xlink" xml:space="preserve" xmlns:serif="http://www.serif.com/" style="fill-rule:evenodd;clip-rule:evenodd;stroke-linejoin:round;stroke-miterlimit:2;">
    <g transform="matrix(1,0,0,1,-2604.37,-333.802)">
        <g>
            <g>
                <path d="M2937.46,453.57C2937.22,453.57 2936.98,453.57 2936.74,453.56C2932.83,453.4 2928.68,452.23 2925.02,451.21C2924.3,451.01 2923.59,450.81 2922.89,450.62C2906.23,446.01 2889.71,436.72 2873.77,423.01C2856.3,407.98 2837.6,389.63 2831.36,367.49C2830.02,362.74 2830.73,358.29 2833.42,354.61C2836.68,350.13 2842.78,347.2 2849.34,346.96C2853.38,346.81 2857.35,347.37 2861.19,347.91C2862.56,348.1 2863.51,349.37 2863.32,350.74C2863.13,352.11 2861.86,353.06 2860.49,352.87C2856.87,352.36 2853.13,351.83 2849.53,351.96C2844.47,352.15 2839.85,354.29 2837.47,357.56C2835.7,359.99 2835.26,362.88 2836.18,366.14C2842.06,387 2860.13,404.68 2877.04,419.22C2892.42,432.45 2908.29,441.4 2924.21,445.8C2924.9,445.99 2925.63,446.19 2926.37,446.4C2929.94,447.4 2933.63,448.43 2936.96,448.57C2940.67,448.72 2945.15,447.13 2947.39,444.86C2949.6,442.62 2950.11,438.12 2948.89,431.48C2948.64,430.12 2949.54,428.82 2950.9,428.57C2952.26,428.32 2953.56,429.22 2953.81,430.58C2955.36,439.04 2954.43,444.86 2950.95,448.38C2947.86,451.49 2942.41,453.57 2937.46,453.57Z" style="fill:rgb(255,0,255);fill-rule:nonzero;"/>
            </g>
            <g>
                <path d="M2942.67,484.35C2935.19,484.35 2926.79,482.44 2917.54,478.62C2907.94,474.66 2898.93,470.02 2890.74,464.82C2888.7,463.53 2886.64,462.25 2884.57,460.96C2875.5,455.33 2866.12,449.52 2858.1,442.1C2856.31,440.45 2854.52,438.8 2852.72,437.16C2841.79,427.15 2830.48,416.81 2821.34,404.52C2809.62,388.77 2798.32,371.8 2799.92,352.77C2800.84,341.84 2811.86,339.48 2819.9,337.76C2820.97,337.53 2822,337.31 2822.96,337.08C2824.3,336.76 2825.65,337.58 2825.97,338.93C2826.29,340.28 2825.47,341.62 2824.12,341.94C2823.12,342.18 2822.05,342.41 2820.94,342.65C2812.19,344.52 2805.46,346.49 2804.89,353.2C2803.43,370.48 2814.19,386.56 2825.33,401.54C2834.19,413.45 2845.31,423.63 2856.07,433.48C2857.87,435.13 2859.67,436.78 2861.46,438.43C2869.13,445.52 2878.3,451.21 2887.17,456.71C2889.25,458 2891.33,459.29 2893.38,460.59C2901.33,465.63 2910.09,470.14 2919.41,473.99C2935.79,480.76 2949,481.11 2958.65,475.02C2962.21,472.77 2963.8,466.5 2963.79,461.28C2963.79,459.9 2964.9,458.78 2966.28,458.77C2967.66,458.77 2968.78,459.89 2968.79,461.26C2968.8,467.67 2966.85,475.75 2961.32,479.24C2955.96,482.65 2949.72,484.35 2942.67,484.35Z" style="fill:rgb(255,0,255);fill-rule:nonzero;"/>
            </g>
            <g>
                <path d="M2949.95,509.59C2937.11,509.59 2925.8,505.73 2913.49,501.09C2898.53,495.44 2887.48,490.23 2877.69,484.21C2863.73,475.62 2849.46,464.76 2834.08,451C2819.14,437.64 2805.18,422.57 2793.73,407.44C2779.82,389.07 2773.39,370.99 2774.61,353.7C2774.75,351.71 2774.91,349.45 2775.9,347.3C2777.75,343.25 2782.16,340.03 2785.69,337.44C2786.37,336.94 2787.02,336.47 2787.61,336.01C2788.7,335.17 2790.28,335.38 2791.11,336.48C2791.95,337.58 2791.74,339.15 2790.64,339.98C2790.02,340.46 2789.34,340.95 2788.63,341.47C2785.56,343.72 2781.74,346.52 2780.43,349.38C2779.82,350.71 2779.7,352.41 2779.59,354.05C2778.46,370.09 2784.55,387.04 2797.71,404.42C2808.97,419.3 2822.7,434.12 2837.41,447.27C2852.57,460.82 2866.6,471.51 2880.31,479.95C2889.82,485.8 2900.6,490.88 2915.26,496.41C2928.18,501.29 2939.08,504.99 2951.91,504.56C2962.76,504.2 2970.34,496.89 2971.7,485.48C2971.86,484.11 2973.1,483.13 2974.48,483.29C2975.85,483.45 2976.83,484.7 2976.67,486.07C2975.03,499.9 2965.38,509.11 2952.09,509.56C2951.36,509.58 2950.65,509.59 2949.95,509.59Z" style="fill:rgb(255,0,255);fill-rule:nonzero;"/>
            </g>
            <g>
                <path d="M2791.81,340.53C2790.53,340.53 2789.44,339.56 2789.32,338.26C2789.19,336.88 2790.2,335.67 2791.58,335.54L2806.44,334.16C2807.81,334.03 2809.03,335.04 2809.16,336.42C2809.29,337.8 2808.28,339.01 2806.9,339.14L2792.04,340.52C2791.96,340.53 2791.88,340.53 2791.81,340.53Z" style="fill:rgb(255,0,255);fill-rule:nonzero;"/>
            </g>
            <g>
                <path d="M2947.81,530.84C2946.54,530.84 2945.24,530.8 2943.89,530.73C2932.66,530.13 2921.38,526.79 2910.87,523.26C2890.42,516.4 2868.73,504.04 2842.63,484.36C2828.19,473.47 2817.69,464.54 2808.59,455.42C2800.14,446.95 2789.21,435.58 2779.6,422.73C2772.46,413.18 2763.53,400.37 2757.9,386.04C2755.02,378.7 2746.24,356.38 2757.67,343.57C2759.07,342 2760.83,340.92 2762.37,340.07C2768.75,336.54 2775.96,334.38 2783.23,333.81C2784.6,333.7 2785.81,334.73 2785.92,336.11C2786.03,337.49 2785,338.69 2783.62,338.8C2777.06,339.31 2770.55,341.26 2764.79,344.45C2763.56,345.13 2762.3,345.9 2761.4,346.91C2755.09,353.99 2755.47,366.19 2762.56,384.22C2767.98,398 2776.66,410.44 2783.61,419.74C2793.03,432.34 2803.8,443.54 2812.14,451.89C2821.07,460.84 2831.41,469.62 2845.65,480.37C2871.31,499.72 2892.55,511.84 2912.47,518.53C2922.64,521.94 2933.53,525.18 2944.17,525.75C2952.16,526.17 2958.43,525.26 2963.34,522.93C2969.77,519.88 2971.95,513.33 2974.25,506.39L2974.6,505.35C2975.04,504.04 2976.45,503.33 2977.76,503.77C2979.07,504.21 2979.78,505.62 2979.34,506.93L2979,507.96C2976.47,515.59 2973.85,523.48 2965.48,527.45C2960.66,529.72 2954.85,530.84 2947.81,530.84Z" style="fill:rgb(255,0,255);fill-rule:nonzero;"/>
            </g>
            <g>
                <path d="M2943.83,550.66C2939.61,550.66 2935.21,550.19 2930.66,549.24C2921.18,547.27 2912.99,544.81 2905.64,541.73L2881.76,531.73C2879.64,530.84 2877.67,529.72 2875.76,528.63C2875.14,528.28 2874.53,527.93 2873.91,527.59C2866.38,523.43 2859.06,518.67 2851.98,514.06C2849.54,512.47 2847.11,510.89 2844.67,509.33C2841.07,507.03 2837.65,504.38 2834.35,501.82C2833.07,500.83 2831.8,499.84 2830.51,498.87C2829.44,498.07 2828.37,497.27 2827.3,496.47C2823.82,493.89 2820.22,491.22 2816.87,488.3L2810.26,482.56C2809.7,482.08 2809.14,481.6 2808.58,481.12C2806.92,479.71 2805.21,478.25 2803.61,476.67L2791.47,464.72C2790.38,463.64 2789.27,462.58 2788.15,461.51C2785.08,458.57 2781.91,455.53 2779.08,452.22L2778.32,451.33C2774.9,447.33 2771.35,443.2 2768.09,438.9L2757.52,424.97C2757.13,424.46 2756.74,423.95 2756.34,423.44C2754.93,421.62 2753.47,419.74 2752.25,417.66C2751.82,416.93 2751.38,416.2 2750.95,415.47C2749.96,413.83 2748.95,412.14 2748.04,410.39L2746.98,408.35C2738.64,392.35 2727.23,370.45 2736.65,351.73C2738.12,348.81 2740.22,346.35 2741.9,344.52C2744.06,342.16 2746.72,340.72 2749.07,339.44C2750.28,338.78 2751.8,339.23 2752.46,340.44C2753.12,341.65 2752.67,343.17 2751.46,343.83C2749.36,344.97 2747.18,346.15 2745.59,347.89C2744.14,349.47 2742.32,351.6 2741.13,353.96C2732.86,370.39 2743.59,390.98 2751.43,406.02L2752.5,408.07C2753.34,409.68 2754.31,411.31 2755.26,412.88C2755.71,413.63 2756.16,414.37 2756.59,415.12C2757.64,416.92 2758.94,418.59 2760.31,420.36C2760.72,420.88 2761.12,421.41 2761.52,421.93L2772.09,435.86C2775.27,440.05 2778.76,444.12 2782.14,448.06L2782.9,448.95C2785.57,452.07 2788.65,455.02 2791.63,457.88C2792.76,458.96 2793.88,460.04 2794.99,461.13L2807.13,473.08C2808.61,474.53 2810.25,475.94 2811.84,477.29C2812.41,477.78 2812.99,478.27 2813.55,478.76L2820.16,484.49C2823.37,487.28 2826.89,489.89 2830.3,492.42C2831.38,493.22 2832.47,494.03 2833.54,494.84C2834.84,495.82 2836.14,496.82 2837.43,497.83C2840.65,500.32 2843.97,502.9 2847.38,505.08C2849.84,506.65 2852.28,508.24 2854.73,509.83C2861.74,514.39 2868.98,519.1 2876.36,523.17C2877,523.52 2877.63,523.88 2878.27,524.25C2880.13,525.31 2881.89,526.31 2883.72,527.08L2907.6,537.08C2914.65,540.03 2922.54,542.4 2931.7,544.3C2946.87,547.46 2960,544.89 2970.73,536.65C2971.83,535.81 2973.4,536.02 2974.24,537.11C2975.08,538.21 2974.87,539.78 2973.78,540.62C2965.08,547.32 2955.05,550.66 2943.83,550.66Z" style="fill:rgb(255,0,255);fill-rule:nonzero;"/>
            </g>
            <g>
                <path d="M2942.28,567.84C2936.14,567.84 2930.48,567.08 2926.61,566.38C2907.18,562.9 2888.6,555.91 2866.35,543.71L2850.19,534.85C2847.61,533.43 2844.84,531.87 2842.11,530.06C2839.8,528.53 2837.38,526.81 2834.49,524.64L2812.31,507.98C2811.74,507.55 2811.17,507.13 2810.59,506.7C2808.69,505.29 2806.72,503.83 2804.86,502.23L2797.87,496.21C2797.33,495.75 2796.79,495.28 2796.25,494.82C2794.45,493.29 2792.59,491.71 2790.85,489.99L2771.17,470.61C2769.52,468.98 2767.98,467.23 2766.5,465.54C2765.95,464.91 2765.4,464.29 2764.84,463.66L2758.66,456.77C2756.78,454.68 2754.88,452.34 2752.68,449.43L2747.09,442.03C2746.66,441.46 2746.22,440.89 2745.78,440.32C2744.34,438.44 2742.85,436.49 2741.5,434.44L2731.45,419.09C2730.13,417.07 2729.1,414.9 2728.11,412.8C2727.78,412.1 2727.45,411.39 2727.11,410.7C2725.66,407.75 2724.46,404.8 2723.39,402.06C2719.74,392.74 2716.9,384.84 2716.38,375.07L2716.35,374.6C2716.27,373.15 2716.18,371.64 2716.34,370.05L2716.76,365.62C2717.6,356.78 2722.11,349.74 2729.46,345.79L2733.21,343.77C2734.43,343.12 2735.94,343.57 2736.6,344.79C2737.25,346.01 2736.8,347.52 2735.58,348.18L2731.83,350.2C2725.92,353.38 2722.43,358.88 2721.74,366.1L2721.32,370.53C2721.2,371.75 2721.27,373 2721.35,374.33L2721.38,374.81C2721.87,383.83 2724.57,391.35 2728.06,400.25C2729.09,402.89 2730.24,405.72 2731.61,408.51C2731.96,409.23 2732.31,409.95 2732.65,410.68C2733.61,412.71 2734.51,414.63 2735.65,416.36L2745.7,431.71C2746.94,433.61 2748.38,435.48 2749.76,437.29C2750.2,437.87 2750.65,438.45 2751.09,439.03L2756.68,446.43C2758.79,449.23 2760.61,451.46 2762.39,453.45L2768.57,460.34C2769.14,460.97 2769.7,461.61 2770.26,462.25C2771.69,463.87 2773.16,465.55 2774.69,467.06L2794.37,486.44C2795.98,488.03 2797.77,489.55 2799.5,491.02C2800.05,491.49 2800.6,491.96 2801.15,492.43L2808.14,498.45C2809.86,499.93 2811.75,501.33 2813.58,502.69C2814.16,503.12 2814.75,503.55 2815.33,503.99L2837.51,520.65C2840.32,522.76 2842.66,524.43 2844.89,525.9C2847.47,527.61 2850.13,529.11 2852.61,530.47L2868.77,539.33C2890.52,551.26 2908.64,558.08 2927.51,561.47C2933.15,562.48 2947.42,564.4 2958.13,560.42C2960.87,559.4 2963.31,557.7 2965.89,555.9C2967.04,555.1 2968.22,554.28 2969.44,553.51C2970.61,552.78 2972.15,553.13 2972.89,554.3C2973.62,555.47 2973.27,557.01 2972.1,557.75C2970.98,558.45 2969.89,559.21 2968.75,560.01C2966.02,561.91 2963.2,563.87 2959.87,565.11C2954.31,567.16 2948.08,567.84 2942.28,567.84Z" style="fill:rgb(255,0,255);fill-rule:nonzero;"/>
            </g>
            <g>
                <path d="M2938.13,585.02C2936.58,585.02 2935.03,584.93 2933.48,584.76C2929.22,584.28 2924.92,583.54 2920.76,582.83C2918.4,582.43 2916.05,582.02 2913.71,581.66C2906.89,580.62 2900.13,577.93 2893.59,575.32C2891.52,574.5 2889.56,573.72 2887.61,572.99C2877.86,569.37 2868.46,565.11 2859.69,560.34C2858.44,559.66 2857.19,558.99 2855.94,558.33C2851.68,556.06 2847.27,553.7 2843.13,550.97L2827.14,540.43C2814.5,532.09 2805.05,525.09 2796.49,517.73L2781.91,505.17C2774.22,498.55 2767.34,492.49 2760.93,485.32L2754.53,478.17C2741.03,463.07 2729.91,448.62 2719.53,432.68C2712.09,421.25 2707.3,411.28 2704.9,402.21L2703.7,397.7C2701.53,389.52 2699.94,382.57 2700.85,373.76C2701,372.35 2701.44,371.01 2701.82,369.84C2701.94,369.46 2702.07,369.08 2702.18,368.71C2704.01,362.59 2707.07,357.53 2712.09,352.33C2713.05,351.34 2714.63,351.31 2715.63,352.27C2716.62,353.23 2716.65,354.81 2715.69,355.81C2711.19,360.47 2708.58,364.76 2706.97,370.15C2706.85,370.57 2706.71,370.99 2706.57,371.41C2706.23,372.44 2705.91,373.41 2705.82,374.29C2705,382.26 2706.49,388.76 2708.53,396.44L2709.73,400.95C2712,409.5 2716.58,419 2723.72,429.98C2733.95,445.7 2744.92,459.96 2758.25,474.86L2764.65,482.01C2770.86,488.95 2777.62,494.9 2785.17,501.41L2799.75,513.97C2808.13,521.19 2817.43,528.07 2829.89,536.28L2845.88,546.82C2849.83,549.42 2854.13,551.72 2858.3,553.94C2859.57,554.61 2860.83,555.29 2862.09,555.97C2870.66,560.63 2879.84,564.79 2889.37,568.33C2891.37,569.07 2893.45,569.9 2895.46,570.7C2901.74,573.2 2908.24,575.78 2914.49,576.74C2916.87,577.1 2919.25,577.51 2921.63,577.92C2925.72,578.62 2929.95,579.35 2934.07,579.81C2947.61,581.34 2959.22,574.96 2966.56,569.33C2967.66,568.49 2969.23,568.7 2970.06,569.8C2970.9,570.9 2970.69,572.47 2969.59,573.3C2959.48,581.01 2948.7,585.02 2938.13,585.02Z" style="fill:rgb(255,0,255);fill-rule:nonzero;"/>
            </g>
            <g>
                <path d="M2934.06,599.57C2929.07,599.57 2924.07,599.02 2919.14,598.47C2917.9,598.33 2916.65,598.19 2915.4,598.06C2898.61,596.32 2883.56,589.82 2869.59,583.32C2867.45,582.32 2865.3,581.34 2863.14,580.36C2853.46,575.94 2843.45,571.38 2834.36,565.41C2816.79,553.88 2800.93,542.68 2785.87,531.17C2782.1,528.29 2778.5,525.12 2775.02,522.05C2773.57,520.78 2772.13,519.51 2770.68,518.26C2761.96,510.76 2752.64,501.67 2742.18,490.46C2736.59,484.47 2731.56,477.9 2726.7,471.55C2725.54,470.04 2724.39,468.53 2723.23,467.03C2722.14,465.62 2721.04,464.23 2719.94,462.83C2715.1,456.69 2710.1,450.34 2706.23,443.14C2705.21,441.24 2704.17,439.35 2703.14,437.46C2699.47,430.78 2695.68,423.87 2692.67,416.59C2692.51,416.2 2692.34,415.8 2692.16,415.41C2691.63,414.2 2691.09,412.96 2690.73,411.59L2688.29,402.15C2685.82,392.59 2683.35,374.82 2694.67,363.2L2698.06,359.72C2699.02,358.73 2700.61,358.71 2701.6,359.67C2702.59,360.63 2702.61,362.22 2701.65,363.21L2698.26,366.69C2688.66,376.56 2690.93,392.36 2693.14,400.9L2695.58,410.34C2695.83,411.32 2696.28,412.33 2696.75,413.41C2696.94,413.84 2697.13,414.26 2697.3,414.69C2700.2,421.72 2703.93,428.5 2707.53,435.07C2708.57,436.97 2709.62,438.87 2710.64,440.79C2714.3,447.61 2718.95,453.51 2723.88,459.75C2724.99,461.15 2726.1,462.56 2727.2,463.98C2728.37,465.49 2729.53,467.01 2730.69,468.52C2735.48,474.77 2740.42,481.24 2745.85,487.06C2756.19,498.14 2765.38,507.11 2773.96,514.48C2775.43,515.74 2776.89,517.03 2778.35,518.31C2781.77,521.32 2785.3,524.44 2788.93,527.21C2803.89,538.65 2819.66,549.78 2837.13,561.24C2845.91,567 2855.74,571.48 2865.25,575.82C2867.42,576.81 2869.58,577.8 2871.73,578.8C2885.31,585.12 2899.92,591.43 2915.94,593.1C2917.2,593.23 2918.46,593.37 2919.71,593.51C2932.05,594.87 2943.71,596.16 2954.34,589.16L2962.58,583.74C2963.73,582.98 2965.28,583.3 2966.04,584.45C2966.8,585.6 2966.48,587.15 2965.33,587.91L2957.09,593.33C2949.66,598.21 2941.88,599.57 2934.06,599.57Z" style="fill:rgb(251,0,255);fill-rule:nonzero;"/>
            </g>
            <g>
                <path d="M2927.68,614.37C2918.64,614.37 2909.51,612.5 2901.47,610.46C2888.56,607.17 2875.21,603.76 2862.4,597.86C2860.83,597.14 2859.26,596.44 2857.67,595.73C2853.09,593.69 2848.35,591.58 2843.9,589.02L2826.18,578.81C2814.12,571.86 2803.05,564.51 2792.32,556.34L2789.25,554C2779.67,546.71 2769.77,539.17 2760.49,531.06C2756.82,527.86 2753.34,524.36 2749.98,520.98C2748.58,519.57 2747.17,518.16 2745.76,516.77C2744.53,515.56 2743.28,514.36 2742.03,513.16C2738.45,509.71 2734.75,506.15 2731.37,502.36C2730.14,500.98 2728.89,499.61 2727.64,498.24C2724.34,494.62 2720.92,490.88 2717.85,486.92L2711.52,478.76C2705.24,470.66 2699.59,462.07 2694.13,453.77L2691.27,449.42C2687.39,443.53 2684.82,437 2682.34,430.7C2681.74,429.18 2681.14,427.67 2680.53,426.16L2678.62,421.48C2678.43,421.02 2678.23,420.56 2678.03,420.1C2677.51,418.92 2676.98,417.69 2676.6,416.37C2673.45,405.24 2673.79,395.13 2674.63,385.85C2674.77,384.36 2675.34,382.96 2675.84,381.73C2676,381.33 2676.16,380.94 2676.3,380.56L2677.95,375.93C2678.49,374.42 2679.46,373.22 2680.31,372.16C2680.53,371.89 2680.74,371.62 2680.95,371.35L2683.91,367.42C2684.74,366.32 2686.31,366.1 2687.41,366.93C2688.51,367.76 2688.73,369.33 2687.9,370.43L2684.94,374.36C2684.71,374.67 2684.46,374.98 2684.21,375.29C2683.55,376.11 2682.92,376.89 2682.67,377.61L2681.02,382.25C2680.86,382.69 2680.67,383.16 2680.48,383.62C2680.09,384.57 2679.69,385.56 2679.62,386.31C2678.82,395.1 2678.49,404.66 2681.42,415.01C2681.7,416 2682.15,417.02 2682.62,418.1C2682.84,418.6 2683.06,419.1 2683.26,419.6L2685.17,424.28C2685.79,425.81 2686.4,427.34 2687,428.88C2689.5,435.23 2691.86,441.23 2695.46,446.69L2698.32,451.04C2703.73,459.26 2709.33,467.77 2715.49,475.71L2721.82,483.87C2724.76,487.67 2728.11,491.33 2731.35,494.88C2732.61,496.26 2733.88,497.65 2735.12,499.04C2738.38,502.69 2742.01,506.19 2745.52,509.57C2746.78,510.78 2748.04,512 2749.28,513.22C2750.71,514.62 2752.13,516.05 2753.54,517.47C2756.84,520.79 2760.26,524.22 2763.8,527.31C2772.96,535.3 2782.79,542.79 2792.3,550.04L2795.37,552.38C2806.07,560.54 2816.66,567.57 2828.69,574.5L2846.41,584.71C2850.63,587.14 2855.25,589.2 2859.71,591.19C2861.31,591.9 2862.91,592.62 2864.49,593.35C2876.89,599.06 2890.02,602.41 2902.71,605.65C2917.51,609.43 2936.23,612.59 2949.72,603.5L2958.07,597.87C2959.21,597.1 2960.77,597.4 2961.54,598.54C2962.31,599.68 2962.01,601.24 2960.87,602.01L2952.52,607.64C2945.07,612.62 2936.43,614.37 2927.68,614.37Z" style="fill:rgb(240,0,255);fill-rule:nonzero;"/>
            </g>
            <g>
                <path d="M2923.39,626.39C2920.43,626.39 2917.47,626.2 2914.55,626.01L2914.03,625.98C2897.55,624.93 2885.19,622.52 2873.96,618.18C2871.35,617.17 2868.73,616.18 2866.12,615.2C2855.93,611.36 2845.39,607.38 2835.46,602.06C2831.35,599.86 2827.27,597.47 2823.32,595.16C2821.34,594 2819.36,592.84 2817.37,591.7C2811.83,588.53 2806.21,584.99 2799.66,580.55C2798.13,579.51 2796.6,578.48 2795.07,577.45C2785.34,570.9 2775.29,564.13 2766.24,556.23L2750.59,542.57C2749.43,541.56 2748.27,540.55 2747.1,539.54C2740.56,533.88 2733.81,528.04 2727.88,521.38L2721.04,513.7C2719.08,511.5 2717.1,509.33 2715.13,507.16C2707.96,499.3 2700.55,491.17 2694.51,481.94C2686.46,469.63 2679.27,458.46 2672.9,446.35C2668.48,437.96 2666.23,428.91 2664.06,420.16C2663.77,419.01 2663.49,417.85 2663.2,416.7C2663.11,416.34 2663.01,415.98 2662.92,415.62C2662.54,414.22 2662.15,412.77 2662.05,411.18C2661.58,403.77 2661.8,397.38 2664.38,390.27L2665.27,387.82C2665.35,387.6 2665.42,387.36 2665.5,387.12C2665.7,386.47 2665.93,385.74 2666.32,385.03C2666.68,384.36 2667.14,383.81 2667.55,383.33C2667.7,383.15 2667.84,382.98 2667.97,382.81L2672.53,376.81C2673.36,375.71 2674.93,375.5 2676.03,376.33C2677.13,377.16 2677.35,378.73 2676.51,379.83L2671.95,385.83C2671.77,386.06 2671.58,386.3 2671.38,386.54C2671.11,386.86 2670.83,387.2 2670.7,387.43C2670.55,387.7 2670.41,388.16 2670.27,388.61C2670.17,388.93 2670.07,389.24 2669.97,389.53L2669.08,391.98C2666.79,398.29 2666.6,403.89 2667.04,410.87C2667.11,411.95 2667.42,413.1 2667.75,414.32C2667.85,414.71 2667.96,415.09 2668.06,415.47C2668.35,416.63 2668.64,417.79 2668.93,418.95C2671.13,427.8 2673.21,436.16 2677.34,444.02C2683.61,455.93 2690.73,467 2698.71,479.2C2704.53,488.09 2711.8,496.07 2718.84,503.79C2720.83,505.97 2722.82,508.16 2724.79,510.37L2731.63,518.05C2737.34,524.47 2743.97,530.21 2750.39,535.76C2751.56,536.77 2752.73,537.78 2753.89,538.8L2769.54,552.46C2778.35,560.15 2788.28,566.84 2797.88,573.3C2799.42,574.34 2800.95,575.37 2802.49,576.41C2808.93,580.78 2814.45,584.26 2819.88,587.36C2821.88,588.51 2823.88,589.67 2825.87,590.84C2829.78,593.13 2833.82,595.49 2837.85,597.65C2847.49,602.81 2857.87,606.73 2867.91,610.52C2870.53,611.51 2873.16,612.5 2875.79,613.52C2886.52,617.67 2898.42,619.98 2914.37,621L2914.89,621.03C2921.61,621.46 2928.56,621.91 2934.73,619.83C2939.79,618.12 2944.4,614.92 2948.86,611.82C2949.75,611.2 2950.64,610.58 2951.53,609.98C2952.67,609.2 2954.23,609.5 2955,610.64C2955.78,611.78 2955.48,613.34 2954.34,614.11C2953.46,614.71 2952.59,615.31 2951.72,615.92C2946.98,619.22 2942.08,622.63 2936.34,624.57C2932.08,625.98 2927.73,626.39 2923.39,626.39Z" style="fill:rgb(228,0,255);fill-rule:nonzero;"/>
            </g>
            <g>
                <path d="M2908.22,637.76C2900.4,637.76 2892.93,636.77 2886.21,635.58C2879.06,634.31 2872.09,632.97 2865.5,630.45L2845.87,622.95C2843.49,622.04 2841.23,620.85 2839.04,619.7C2838.11,619.21 2837.18,618.72 2836.25,618.26L2826.88,613.61C2816.94,608.67 2808.01,604.11 2799.39,598.29L2773.46,580.77C2768.05,577.11 2762.87,572.96 2757.87,568.94L2756.78,568.06C2754.88,566.54 2753.05,564.9 2751.28,563.32C2750.47,562.59 2749.65,561.87 2748.84,561.16L2746.38,559.02C2739.42,552.96 2732.21,546.69 2725.53,540.03C2724.19,538.7 2722.84,537.37 2721.48,536.05C2717.88,532.53 2714.16,528.89 2710.74,525.04C2709.51,523.66 2708.26,522.28 2707,520.9C2703.62,517.19 2700.13,513.35 2697.02,509.27C2694.87,506.45 2692.6,503.61 2690.41,500.87C2683.95,492.8 2677.28,484.45 2672.37,475.04C2671.59,473.55 2670.81,472.06 2670.03,470.58C2663.36,457.91 2657.06,445.93 2653.58,431.83C2653.47,431.37 2653.33,430.9 2653.2,430.43C2652.84,429.15 2652.46,427.82 2652.34,426.41C2652.13,424.06 2652.02,421.69 2651.92,419.4C2651.87,418.25 2651.81,417.09 2651.75,415.94C2651.16,405.51 2652.23,398.4 2655.04,394.21C2656.32,392.3 2657.76,390.5 2659.15,388.76C2659.83,387.91 2660.5,387.07 2661.15,386.22C2661.99,385.12 2663.56,384.92 2664.65,385.75C2665.75,386.59 2665.96,388.16 2665.12,389.25C2664.45,390.13 2663.75,391 2663.05,391.88C2661.72,393.54 2660.35,395.26 2659.19,396.99C2657.04,400.2 2656.22,406.48 2656.74,415.65C2656.81,416.82 2656.86,417.99 2656.92,419.16C2657.02,421.4 2657.13,423.72 2657.33,425.97C2657.41,426.91 2657.71,427.96 2658.02,429.07C2658.17,429.6 2658.32,430.12 2658.44,430.63C2661.78,444.15 2667.94,455.85 2674.46,468.25C2675.24,469.73 2676.02,471.22 2676.81,472.72C2681.5,481.7 2688.02,489.86 2694.33,497.74C2696.54,500.51 2698.83,503.37 2701.01,506.23C2703.99,510.14 2707.41,513.89 2710.72,517.53C2711.99,518.92 2713.25,520.31 2714.5,521.71C2717.8,525.42 2721.46,529 2725,532.46C2726.37,533.8 2727.73,535.13 2729.08,536.48C2735.64,543.02 2742.78,549.23 2749.68,555.24L2752.14,557.39C2752.97,558.12 2753.8,558.85 2754.63,559.59C2756.35,561.13 2758.13,562.72 2759.93,564.16L2761.03,565.04C2765.96,568.99 2771.05,573.08 2776.29,576.62L2802.22,594.14C2810.58,599.79 2819.36,604.27 2829.14,609.12L2838.51,613.77C2839.47,614.25 2840.43,614.75 2841.4,615.26C2843.46,616.34 2845.59,617.46 2847.69,618.27L2867.32,625.77C2873.5,628.13 2880.21,629.42 2887.11,630.65C2903.92,633.63 2925.68,635.34 2944.99,622.07C2946.13,621.29 2947.68,621.57 2948.47,622.71C2949.25,623.85 2948.96,625.4 2947.83,626.19C2934.86,635.08 2921.07,637.76 2908.22,637.76Z" style="fill:rgb(216,0,255);fill-rule:nonzero;"/>
            </g>
            <g>
                <path d="M2896.82,650C2896.53,650 2896.23,649.99 2895.92,649.97C2895.2,649.91 2894.52,649.77 2893.91,649.65C2893.65,649.6 2893.39,649.54 2893.13,649.5L2873.14,646.07C2871.76,645.83 2870.47,645.41 2869.23,645C2868.82,644.86 2868.41,644.73 2868,644.6L2848.6,638.63C2848.11,638.48 2847.62,638.34 2847.13,638.2C2845.99,637.87 2844.81,637.53 2843.64,637.09C2842.56,636.68 2841.5,636.22 2840.48,635.78C2839.98,635.56 2839.48,635.35 2838.98,635.14C2836.37,634.04 2833.83,632.78 2831.38,631.56L2811.36,621.69C2808.89,620.48 2806.54,619.05 2804.27,617.67C2803.59,617.26 2802.92,616.85 2802.24,616.44L2784.8,606.06C2781.73,604.23 2778.72,602.21 2776.07,600.42C2772.78,598.2 2770.13,596.31 2767.74,594.44L2735.49,569.34C2735.2,569.12 2734.91,568.9 2734.62,568.67C2733.55,567.86 2732.44,567.01 2731.41,565.99L2699,533.64C2694.04,528.69 2689.85,523.17 2685.8,517.84L2673.41,501.52C2673.08,501.08 2672.74,500.65 2672.4,500.22C2671.69,499.31 2670.96,498.38 2670.27,497.39C2669.6,496.42 2668.99,495.41 2668.4,494.44C2668.12,493.97 2667.84,493.51 2667.55,493.05L2662.14,484.42C2661.89,484.03 2661.64,483.63 2661.38,483.24C2660.71,482.2 2660.01,481.13 2659.41,479.97L2654.76,470.99C2654.56,470.61 2654.35,470.22 2654.15,469.84C2653.52,468.69 2652.88,467.5 2652.4,466.18L2645.37,447.05C2645.19,446.55 2644.99,446.06 2644.79,445.56C2644.35,444.46 2643.89,443.31 2643.56,442.1C2643.23,440.89 2643.05,439.68 2642.87,438.5C2642.79,437.97 2642.71,437.44 2642.62,436.92C2642.13,434.19 2642.02,431.45 2641.91,428.8C2641.88,428.07 2641.85,427.34 2641.82,426.61C2641.81,426.32 2641.79,426.02 2641.77,425.73C2641.67,424.22 2641.57,422.65 2641.93,420.95L2644.03,410.86C2644.08,410.61 2644.13,410.36 2644.18,410.11C2644.29,409.53 2644.4,408.94 2644.57,408.33C2644.83,407.35 2645.35,406.54 2645.77,405.89C2645.87,405.73 2645.97,405.57 2646.07,405.42L2651.12,396.97C2651.83,395.78 2653.37,395.4 2654.55,396.11C2655.74,396.82 2656.12,398.35 2655.41,399.54L2650.36,407.99C2650.24,408.19 2650.11,408.4 2649.98,408.6C2649.75,408.95 2649.47,409.39 2649.41,409.62C2649.28,410.09 2649.2,410.57 2649.11,411.05C2649.06,411.33 2649,411.61 2648.95,411.88L2646.85,421.97C2646.64,423 2646.71,424.17 2646.79,425.41C2646.81,425.72 2646.83,426.04 2646.85,426.35C2646.89,427.1 2646.92,427.84 2646.95,428.59C2647.05,431.18 2647.15,433.63 2647.58,436.01C2647.68,436.57 2647.77,437.15 2647.86,437.73C2648.03,438.81 2648.18,439.84 2648.43,440.77C2648.68,441.7 2649.07,442.66 2649.47,443.68C2649.69,444.22 2649.9,444.77 2650.1,445.31L2657.13,464.44C2657.49,465.42 2658.02,466.4 2658.59,467.44C2658.81,467.85 2659.04,468.26 2659.25,468.68L2663.9,477.66C2664.39,478.6 2664.99,479.52 2665.62,480.5C2665.89,480.91 2666.16,481.33 2666.42,481.75L2671.83,490.38C2672.13,490.86 2672.43,491.35 2672.72,491.83C2673.3,492.78 2673.84,493.68 2674.43,494.53C2675.03,495.39 2675.68,496.23 2676.38,497.12C2676.74,497.57 2677.09,498.03 2677.44,498.48L2689.83,514.8C2693.78,520 2697.86,525.38 2702.58,530.09L2735,562.44C2735.79,563.22 2736.71,563.93 2737.7,564.68C2738.01,564.91 2738.31,565.15 2738.62,565.38L2770.87,590.48C2773.17,592.27 2775.73,594.11 2778.92,596.25C2781.65,598.09 2784.47,599.99 2787.42,601.74L2804.86,612.12C2805.55,612.53 2806.24,612.95 2806.93,613.37C2809.11,614.69 2811.36,616.06 2813.63,617.18L2833.66,627.05C2836.04,628.23 2838.51,629.46 2840.97,630.49C2841.49,630.71 2842,630.93 2842.52,631.15C2843.54,631.59 2844.5,632.01 2845.48,632.38C2846.45,632.75 2847.48,633.05 2848.57,633.36C2849.09,633.51 2849.61,633.66 2850.12,633.82L2869.52,639.79C2869.96,639.93 2870.4,640.07 2870.85,640.22C2871.97,640.59 2873.02,640.94 2874.04,641.11L2894.03,644.54C2894.33,644.59 2894.64,644.65 2894.95,644.72C2895.46,644.82 2895.95,644.92 2896.37,644.96C2896.75,644.99 2897.2,644.98 2897.68,644.96C2897.97,644.95 2898.26,644.94 2898.54,644.94C2902.07,644.91 2905.52,644.69 2908.44,644.49L2913.38,644.13C2914.23,644.07 2915.24,643.72 2916.3,643.34C2916.75,643.18 2917.19,643.02 2917.63,642.89L2927.39,639.82C2928.71,639.41 2930.11,640.14 2930.53,641.45C2930.95,642.77 2930.21,644.17 2928.9,644.59L2919.14,647.66C2918.76,647.78 2918.37,647.92 2917.97,648.06C2916.71,648.51 2915.27,649.01 2913.75,649.12L2908.81,649.48C2905.82,649.7 2902.27,649.92 2898.59,649.95C2898.35,649.95 2898.11,649.96 2897.87,649.97C2897.5,649.99 2897.17,650 2896.82,650Z" style="fill:rgb(205,0,255);fill-rule:nonzero;"/>
            </g>
            <g>
                <path d="M2890.87,659.51C2841.92,659.51 2797.35,631.7 2759.07,605.25C2756.7,603.62 2754.43,601.84 2752.24,600.12L2750.78,598.98C2704.05,562.68 2672.06,527.7 2650.1,488.91C2644.29,478.64 2637.27,464.88 2634.62,449.58C2631.92,433.96 2634.37,419.07 2641.52,407.66C2642.25,406.49 2643.8,406.14 2644.97,406.87C2646.14,407.6 2646.49,409.15 2645.76,410.32C2639.26,420.68 2637.06,434.32 2639.55,448.73C2642.07,463.27 2648.83,476.53 2654.45,486.45C2676.07,524.65 2707.65,559.15 2753.84,595.03L2755.32,596.18C2757.46,597.85 2759.67,599.58 2761.92,601.13C2802.05,628.85 2849.14,658.1 2900.33,654.14L2905.37,653.75C2906.54,653.66 2907.67,653.29 2908.98,652.87L2919.28,649.57C2920.59,649.15 2922,649.87 2922.42,651.19C2922.84,652.5 2922.12,653.91 2920.8,654.33L2910.53,657.62C2909.05,658.1 2907.53,658.6 2905.76,658.73L2900.72,659.12C2897.41,659.39 2894.12,659.51 2890.87,659.51Z" style="fill:rgb(192,0,255);fill-rule:nonzero;"/>
            </g>
            <g>
                <path d="M2884.48,669.4C2884.41,669.4 2884.33,669.4 2884.26,669.39C2849.18,666.32 2815.44,655.06 2781.13,634.99C2737.07,609.21 2698.53,575.95 2666.59,536.12C2652.91,519.06 2643.01,503.31 2636.31,487.95C2625.46,463.07 2622.49,444.53 2627.49,432.82C2628.03,431.55 2629.5,430.96 2630.77,431.5C2632.04,432.04 2632.63,433.51 2632.09,434.78C2629.04,441.92 2628.09,456.6 2640.9,485.94C2647.42,500.89 2657.1,516.28 2670.5,532.98C2702.06,572.33 2740.13,605.19 2783.67,630.66C2817.27,650.32 2850.26,661.35 2884.53,664.38C2884.99,664.35 2885.44,664.31 2885.9,664.27L2886.72,664.2L2896.83,663.37C2898.11,663.27 2899.22,663.18 2900.26,662.85L2904.69,661.41C2906,660.98 2907.41,661.7 2907.84,663.02C2908.27,664.33 2907.55,665.74 2906.23,666.17L2901.81,667.61C2900.2,668.13 2898.69,668.25 2897.22,668.36L2886.36,669.26C2885.78,669.31 2885.21,669.37 2884.63,669.4L2884.48,669.4Z" style="fill:rgb(179,0,255);fill-rule:nonzero;"/>
            </g>
            <g>
                <path d="M2875.88,677.9C2875.28,677.9 2874.69,677.88 2874.11,677.86C2873.61,677.84 2873.11,677.83 2872.62,677.83L2871.43,677.83C2868.69,677.83 2865.86,677.82 2863.02,677.58L2862.39,677.53C2861.05,677.42 2859.66,677.31 2858.24,676.99L2844.5,673.98C2843.77,673.82 2843.04,673.67 2842.31,673.52C2840.01,673.04 2837.63,672.55 2835.3,671.79L2813.07,664.5C2812.71,664.38 2812.35,664.27 2811.98,664.16C2810.84,663.81 2809.67,663.46 2808.51,662.89C2806.66,661.98 2804.82,661.03 2802.98,660.09C2802.07,659.62 2801.16,659.16 2800.25,658.69L2783.61,650.25C2782.7,649.79 2781.79,649.33 2780.87,648.88C2779.04,647.97 2777.16,647.03 2775.31,646.04C2773.4,645.01 2771.54,643.86 2769.75,642.75C2768.9,642.23 2768.06,641.7 2767.21,641.2L2759.37,636.49C2757.43,635.33 2755.58,634.02 2753.8,632.75C2753.04,632.21 2752.29,631.68 2751.53,631.16L2743.98,625.98C2743.29,625.5 2742.59,625.03 2741.89,624.56C2740,623.29 2738.04,621.98 2736.19,620.52L2714.26,603.21C2711.68,601.18 2709.24,599.04 2706.98,597.03L2700.09,590.9C2698.29,589.3 2696.63,587.57 2695.02,585.88C2694.45,585.29 2693.89,584.7 2693.32,584.11L2680.29,570.77C2679.22,569.68 2678.14,568.59 2677.07,567.5C2673.79,564.2 2670.41,560.78 2667.3,557.17C2664.22,553.6 2661.48,549.7 2658.82,545.94C2657.89,544.61 2656.95,543.29 2656.01,541.98L2644.1,525.51C2642.58,523.43 2641.01,521.28 2639.67,518.94C2637.98,515.99 2636.48,513.31 2635.15,510.45L2627.27,493.5C2626.51,491.86 2625.96,490.4 2625.53,488.9L2620.51,471C2620.38,470.54 2620.23,470.08 2620.08,469.61C2619.73,468.52 2619.37,467.39 2619.18,466.19C2618.93,464.56 2619.08,462.95 2619.21,461.52L2620.45,447.3C2620.57,445.92 2621.79,444.89 2623.16,445.03C2624.54,445.15 2625.55,446.36 2625.43,447.74L2624.19,461.99C2624.08,463.18 2623.97,464.41 2624.12,465.42C2624.25,466.24 2624.54,467.13 2624.84,468.08C2625.01,468.61 2625.18,469.13 2625.32,469.65L2630.34,487.55C2630.69,488.8 2631.14,489.99 2631.79,491.4L2639.67,508.35C2640.92,511.03 2642.37,513.61 2644,516.47C2645.2,518.57 2646.62,520.51 2648.12,522.57L2649.08,523.89L2660.05,539.06C2661.01,540.39 2661.95,541.73 2662.9,543.07C2665.48,546.74 2668.16,550.53 2671.08,553.92C2674.08,557.4 2677.4,560.75 2680.62,563.99C2681.71,565.09 2682.79,566.18 2683.87,567.28L2696.9,580.62C2697.48,581.22 2698.06,581.82 2698.64,582.42C2700.18,584.03 2701.77,585.69 2703.42,587.16L2710.31,593.29C2712.51,595.25 2714.89,597.33 2717.37,599.28L2739.3,616.59C2741,617.93 2742.87,619.19 2744.69,620.4C2745.41,620.88 2746.12,621.36 2746.83,621.85L2754.38,627.03C2755.16,627.57 2755.93,628.11 2756.71,628.66C2758.42,629.87 2760.19,631.13 2761.97,632.19L2769.81,636.9C2770.68,637.42 2771.54,637.96 2772.41,638.49C2774.14,639.56 2775.93,640.67 2777.71,641.62C2779.48,642.57 2781.34,643.5 2783.13,644.39C2784.06,644.85 2784.98,645.31 2785.9,645.78L2802.54,654.22C2803.46,654.69 2804.37,655.16 2805.29,655.62C2807.11,656.55 2808.92,657.48 2810.75,658.38C2811.54,658.77 2812.47,659.05 2813.46,659.35C2813.86,659.47 2814.26,659.59 2814.65,659.72L2836.88,667.01C2838.94,667.68 2841.08,668.13 2843.34,668.59C2844.09,668.75 2844.84,668.9 2845.59,669.06L2859.33,672.07C2860.43,672.31 2861.59,672.41 2862.82,672.51L2863.47,672.56C2866.1,672.78 2868.7,672.79 2871.46,672.79L2872.66,672.79C2873.2,672.79 2873.74,672.81 2874.29,672.83C2875.31,672.86 2876.27,672.89 2877.16,672.82C2878.02,672.75 2878.93,672.58 2879.88,672.4C2880.39,672.31 2880.9,672.21 2881.4,672.13L2890.6,670.66C2891.96,670.44 2893.24,671.37 2893.46,672.74C2893.68,674.1 2892.75,675.38 2891.38,675.6L2882.18,677.07C2881.71,677.14 2881.25,677.23 2880.78,677.32C2879.75,677.51 2878.68,677.71 2877.57,677.8C2876.99,677.89 2876.43,677.9 2875.88,677.9Z" style="fill:rgb(179,0,255);fill-rule:nonzero;"/>
            </g>
            <g>
                <path d="M2854.94,684.95C2853.66,684.95 2852.45,684.78 2851.28,684.61C2850.91,684.56 2850.55,684.5 2850.18,684.46C2833.88,682.4 2818.03,678.08 2801.74,671.27L2791.67,667.06C2786.72,665 2781.6,662.86 2776.75,660.2C2773.14,658.21 2769.58,656.03 2766.13,653.92C2764.41,652.86 2762.69,651.81 2760.96,650.77L2745.25,641.38C2742.43,639.7 2739.9,638.17 2737.42,636.46C2735.19,634.93 2733.07,633.25 2731.02,631.63L2708.6,613.96C2707.88,613.39 2707.14,612.83 2706.4,612.27C2704.73,611 2703,609.68 2701.39,608.23C2700.36,607.3 2699.32,606.37 2698.28,605.45C2694.81,602.35 2691.22,599.15 2687.89,595.74L2668.61,575.98C2666.83,574.16 2665.22,572.2 2663.66,570.31L2656.69,561.92C2656.14,561.25 2655.57,560.59 2655,559.93C2653.6,558.3 2652.16,556.61 2650.86,554.8L2645.45,547.29C2644.87,546.49 2644.28,545.69 2643.68,544.89C2642.46,543.26 2641.2,541.57 2640.06,539.8C2638.91,538.01 2637.88,536.12 2636.89,534.31C2636.41,533.42 2635.92,532.54 2635.43,531.67L2630.87,523.65C2620.31,505.07 2615.14,488.26 2614.61,470.75L2614.34,461.84C2614.3,460.46 2615.38,459.31 2616.76,459.26C2618.16,459.18 2619.29,460.3 2619.34,461.68L2619.61,470.59C2620.12,487.25 2625.08,503.32 2635.22,521.17L2639.78,529.19C2640.29,530.09 2640.79,531 2641.28,531.91C2642.23,533.65 2643.21,535.45 2644.27,537.1C2645.31,538.72 2646.51,540.33 2647.68,541.89C2648.29,542.71 2648.91,543.53 2649.5,544.36L2654.91,551.87C2656.09,553.5 2657.46,555.11 2658.79,556.66C2659.37,557.34 2659.96,558.02 2660.53,558.71L2667.51,567.12C2669.07,569.01 2670.55,570.8 2672.18,572.48L2691.46,592.24C2694.67,595.53 2698.2,598.67 2701.6,601.72C2702.65,602.65 2703.69,603.59 2704.73,604.52C2706.18,605.83 2707.83,607.08 2709.41,608.29C2710.17,608.87 2710.93,609.45 2711.68,610.04L2734.11,627.71C2736.19,629.35 2738.15,630.9 2740.24,632.35C2742.6,633.98 2745.06,635.46 2747.8,637.1L2763.51,646.49C2765.26,647.53 2767,648.6 2768.74,649.67C2772.13,651.75 2775.64,653.91 2779.15,655.83C2783.76,658.37 2788.76,660.45 2793.58,662.46L2803.66,666.67C2819.53,673.31 2834.95,677.51 2850.8,679.51C2851.19,679.56 2851.59,679.62 2851.98,679.67C2853.02,679.82 2854.01,679.96 2854.93,679.96L2868.51,679.95C2869.6,679.95 2870.72,679.76 2871.92,679.56L2881.66,677.97C2883.02,677.76 2884.31,678.67 2884.53,680.04C2884.75,681.4 2883.83,682.69 2882.46,682.91L2872.74,684.49C2871.4,684.72 2870.01,684.95 2868.51,684.95L2854.94,684.95Z" style="fill:rgb(166,0,255);fill-rule:nonzero;"/>
            </g>
            <g>
                <path d="M2849.96,692.03C2847.66,692.03 2845.43,691.73 2843.27,691.44C2842.7,691.36 2842.12,691.29 2841.55,691.22L2833.01,690.17C2830.42,689.85 2827.91,689.28 2825.49,688.73L2824.62,688.53C2807.32,684.62 2791.06,678.89 2776.32,671.51L2761.12,663.9C2759.12,662.9 2757.21,661.74 2755.36,660.62C2754.74,660.24 2754.12,659.87 2753.5,659.5L2746.4,655.28C2742.68,653.07 2739.09,650.56 2735.63,648.13C2734.45,647.31 2733.28,646.48 2732.09,645.67L2717.99,635.98C2713.5,632.89 2708.74,629.49 2704.34,625.52L2672.35,596.64C2670.25,594.74 2668.47,592.73 2666.44,590.29L2643.81,563C2642.18,561.05 2640.5,559.04 2639.02,556.83C2638.6,556.21 2638.18,555.6 2637.75,554.99C2636.6,553.34 2635.4,551.62 2634.37,549.8L2625.99,534.96C2616.1,517.45 2610.87,500.86 2610.46,485.65L2610.23,477.26C2610.19,475.88 2611.28,474.73 2612.66,474.69L2612.73,474.69C2614.08,474.69 2615.19,475.76 2615.23,477.12L2615.46,485.51C2615.86,499.9 2620.87,515.71 2630.35,532.5L2638.73,547.34C2639.64,548.96 2640.72,550.5 2641.85,552.13C2642.29,552.76 2642.73,553.39 2643.16,554.03C2644.51,556.02 2646.04,557.86 2647.66,559.8L2670.31,587.09C2672.2,589.36 2673.84,591.23 2675.72,592.92L2707.71,621.8C2711.89,625.57 2716.49,628.86 2720.84,631.85L2734.94,641.54C2736.13,642.36 2737.32,643.19 2738.51,644.02C2741.9,646.39 2745.4,648.84 2748.97,650.96L2756.07,655.18C2756.7,655.56 2757.34,655.94 2757.97,656.33C2759.81,657.45 2761.55,658.5 2763.37,659.42L2778.57,667.03C2792.96,674.23 2808.83,679.82 2825.74,683.64L2826.61,683.84C2829.02,684.39 2831.29,684.91 2833.63,685.19L2842.17,686.24C2842.76,686.31 2843.35,686.39 2843.94,686.47C2846.03,686.75 2848.01,687.01 2849.97,687.01L2850.05,687.01L2858.61,686.97C2860,686.97 2861.11,688.08 2861.12,689.46C2861.13,690.84 2860.01,691.96 2858.63,691.97L2850.07,692.01C2850.03,692.03 2849.99,692.03 2849.96,692.03Z" style="fill:rgb(166,0,255);fill-rule:nonzero;"/>
            </g>
            <g>
                <path d="M2841.55,697.34C2831.38,697.28 2821.79,696.09 2809.45,693.34C2776.66,686.05 2742.84,668.88 2708.95,642.33L2696.35,632.46C2692.79,629.67 2689.42,626.6 2686.16,623.64C2685.42,622.97 2684.68,622.3 2683.94,621.63C2683.06,620.83 2682.17,620.04 2681.28,619.25C2678.21,616.52 2675.03,613.69 2672.11,610.63L2655.42,593.16C2653.46,591.11 2651.67,589 2650.04,587.03L2644.98,580.91C2643.17,578.72 2641.58,576.43 2640.13,574.29L2631,560.75C2625.52,552.62 2619.86,543.55 2615.6,532.37C2611.43,521.4 2608.89,511.73 2607.37,501.02L2606.24,493.07C2606.05,491.7 2607,490.44 2608.36,490.24C2609.74,490.05 2610.99,491 2611.19,492.36L2612.32,500.31C2613.78,510.64 2616.24,519.97 2620.27,530.58C2624.34,541.29 2629.82,550.06 2635.14,557.95L2644.27,571.49C2645.86,573.85 2647.24,575.81 2648.82,577.72L2653.88,583.84C2655.45,585.74 2657.16,587.77 2659.02,589.71L2675.71,607.18C2678.49,610.09 2681.59,612.85 2684.59,615.52C2685.49,616.32 2686.38,617.12 2687.28,617.92C2688.03,618.59 2688.77,619.27 2689.51,619.94C2692.7,622.84 2696,625.84 2699.42,628.52L2712.02,638.39C2745.32,664.48 2778.46,681.33 2810.52,688.46C2822.49,691.12 2831.77,692.28 2841.55,692.34C2842.93,692.35 2844.04,693.47 2844.04,694.85C2844.04,696.23 2842.93,697.34 2841.55,697.34Z" style="fill:rgb(153,0,255);fill-rule:nonzero;"/>
            </g>
            <g>
                <path d="M2834.3,701.59C2834.29,701.59 2826.28,701.56 2826.28,701.56C2814.26,701.52 2802.08,699.48 2787.96,695.15C2783.67,693.83 2779.46,692.21 2775.38,690.64L2759.26,684.45C2755.47,682.99 2751.96,680.88 2748.56,678.84C2747.48,678.19 2746.4,677.54 2745.32,676.92C2742.35,675.21 2739.37,673.52 2736.39,671.83C2730.49,668.48 2724.4,665.02 2718.49,661.46C2709.27,655.9 2700.89,648.9 2692.8,642.13C2689.13,639.07 2685.34,635.9 2681.56,632.93C2677.32,629.62 2673.51,625.72 2670.27,622.32L2648.78,599.81C2646.2,597.11 2643.9,594.13 2641.67,591.25C2640.8,590.13 2639.93,589.01 2639.06,587.91C2628.96,575.28 2621.54,561.32 2615.02,548.11C2609.85,537.64 2607.89,528.88 2606.39,518.12L2605.33,510.51C2605.14,509.14 2606.09,507.88 2607.46,507.69C2608.83,507.5 2610.09,508.45 2610.28,509.82L2611.34,517.43C2612.77,527.69 2614.63,536.03 2619.5,545.9C2625.89,558.86 2633.16,572.54 2642.96,584.79C2643.86,585.91 2644.74,587.05 2645.62,588.19C2647.77,590.97 2650,593.84 2652.4,596.36L2673.89,618.87C2677.01,622.14 2680.67,625.89 2684.65,629C2688.5,632.01 2692.32,635.21 2696.02,638.3C2703.97,644.95 2712.19,651.82 2721.09,657.18C2726.95,660.71 2733.01,664.15 2738.88,667.48C2741.87,669.18 2744.86,670.87 2747.84,672.59C2748.95,673.23 2750.05,673.89 2751.16,674.56C2754.37,676.49 2757.69,678.49 2761.07,679.79L2777.2,685.98C2781.19,687.52 2785.32,689.11 2789.45,690.38C2803.09,694.57 2814.8,696.53 2826.32,696.57L2834.33,696.6C2835.71,696.6 2836.83,697.73 2836.82,699.11C2836.8,700.47 2835.68,701.59 2834.3,701.59Z" style="fill:rgb(153,0,255);fill-rule:nonzero;"/>
            </g>
            <g>
                <path d="M2813.43,705.37C2813.35,705.37 2813.27,705.37 2813.19,705.36L2806.44,704.72C2804.52,704.54 2802.63,704.2 2800.81,703.87C2800.28,703.77 2799.75,703.68 2799.22,703.59C2798,703.38 2796.78,703.18 2795.56,702.98C2792.14,702.42 2788.61,701.85 2785.15,701.03L2778.38,699.43C2776.15,698.9 2774.08,698.11 2772.07,697.35L2769.32,696.31C2765.74,694.96 2762.04,693.56 2758.45,691.95L2739.48,683.42C2737.16,682.38 2734.98,681.17 2732.97,680.01C2726.56,676.33 2720.33,672.2 2714.3,668.21C2712.6,667.08 2710.9,665.96 2709.19,664.84L2697.51,657.18C2693.51,654.56 2689.94,651.44 2686.34,648.22L2665.24,629.33C2664.53,628.7 2663.83,628.07 2663.12,627.44C2660.39,625.02 2657.56,622.52 2654.97,619.8C2652.63,617.35 2650.55,614.64 2648.54,612.02C2647.72,610.95 2646.9,609.89 2646.07,608.85L2628.53,586.87C2627.02,584.98 2625.78,582.99 2624.57,581.05L2624.48,580.9C2623.41,579.18 2622.55,577.39 2621.71,575.66C2621.5,575.23 2621.29,574.79 2621.08,574.37L2611.89,555.63C2610.98,553.77 2610.51,551.83 2610.06,549.96C2609.94,549.47 2609.82,548.98 2609.7,548.49L2606.17,534.96C2606,534.3 2605.8,533.62 2605.6,532.94C2605.12,531.32 2604.63,529.64 2604.39,527.9C2604.21,526.53 2605.17,525.27 2606.54,525.09C2607.91,524.91 2609.17,525.87 2609.35,527.24C2609.53,528.6 2609.95,530.02 2610.4,531.53C2610.62,532.26 2610.83,532.98 2611.02,533.7L2614.55,547.23C2614.68,547.74 2614.81,548.26 2614.94,548.78C2615.35,550.46 2615.73,552.05 2616.4,553.42L2625.59,572.16C2625.81,572.6 2626.02,573.04 2626.23,573.49C2627.04,575.18 2627.81,576.77 2628.74,578.25L2628.83,578.4C2630.01,580.29 2631.13,582.08 2632.46,583.74L2650,605.72C2650.85,606.79 2651.69,607.87 2652.53,608.97C2654.46,611.49 2656.46,614.09 2658.62,616.35C2661.07,618.92 2663.81,621.35 2666.47,623.7C2667.19,624.33 2667.9,624.97 2668.61,625.61L2689.71,644.5C2693.16,647.59 2696.57,650.57 2700.28,653L2711.96,660.66C2713.67,661.78 2715.38,662.91 2717.09,664.05C2723.05,668 2729.22,672.09 2735.49,675.68C2737.69,676.94 2739.56,677.96 2741.56,678.86L2760.53,687.39C2763.98,688.94 2767.61,690.31 2771.11,691.64L2773.88,692.69C2775.82,693.43 2777.65,694.13 2779.56,694.58L2786.33,696.18C2789.61,696.96 2793.06,697.52 2796.39,698.06C2797.63,698.26 2798.86,698.46 2800.09,698.67C2800.63,698.76 2801.17,698.86 2801.72,698.96C2803.52,699.28 2805.22,699.59 2806.94,699.75L2813.69,700.39C2815.07,700.52 2816.07,701.74 2815.94,703.11C2815.79,704.4 2814.7,705.37 2813.43,705.37Z" style="fill:rgb(139,0,255);fill-rule:nonzero;"/>
            </g>
            <g>
                <path d="M2788.43,706.27C2788.24,706.27 2788.05,706.25 2787.86,706.2C2786.41,705.86 2784.95,705.52 2783.49,705.19C2777.99,703.92 2772.31,702.61 2766.77,701.02L2756.51,698.06C2753.58,697.22 2750.84,695.95 2748.2,694.73C2747.48,694.4 2746.76,694.06 2746.03,693.74C2740.55,691.29 2735.16,688.52 2729.95,685.85L2721.69,681.63C2721.2,681.38 2720.71,681.14 2720.21,680.9C2719.07,680.35 2717.9,679.77 2716.76,679.09C2714.66,677.82 2712.61,676.45 2710.63,675.12C2709.64,674.46 2708.66,673.8 2707.67,673.15C2702.68,669.89 2697.86,666.29 2693.19,662.82C2692.09,662 2690.99,661.18 2689.89,660.36L2681.21,653.94C2678.51,651.94 2676.03,649.72 2673.63,647.56L2672.77,646.79C2672,646.1 2671.22,645.43 2670.44,644.75C2668.44,643.01 2666.37,641.21 2664.48,639.24L2645.83,619.79C2645.49,619.43 2645.13,619.08 2644.78,618.72C2643.8,617.73 2642.79,616.71 2641.87,615.56L2635.11,607.07C2634.19,605.92 2633.46,604.69 2632.76,603.51C2632.52,603.1 2632.27,602.69 2632.02,602.29L2614.8,574.59C2614.07,573.42 2614.43,571.88 2615.6,571.15C2616.77,570.42 2618.31,570.78 2619.04,571.95L2636.26,599.65C2636.52,600.08 2636.78,600.51 2637.05,600.95C2637.7,602.04 2638.32,603.07 2639.02,603.96L2645.78,612.45C2646.53,613.39 2647.4,614.27 2648.33,615.21C2648.7,615.59 2649.07,615.96 2649.44,616.34L2668.09,635.79C2669.82,637.6 2671.8,639.32 2673.72,640.98C2674.52,641.67 2675.32,642.37 2676.1,643.07L2676.97,643.85C2679.39,646.02 2681.67,648.07 2684.18,649.93L2692.86,656.35C2693.97,657.17 2695.07,657.99 2696.18,658.82C2700.78,662.25 2705.55,665.8 2710.4,668.98C2711.41,669.64 2712.41,670.31 2713.41,670.98C2715.34,672.28 2717.35,673.62 2719.34,674.82C2720.28,675.39 2721.31,675.89 2722.39,676.42C2722.92,676.68 2723.44,676.93 2723.95,677.19L2732.22,681.42C2737.37,684.07 2742.7,686.8 2748.06,689.2C2748.8,689.53 2749.54,689.87 2750.28,690.21C2752.87,691.4 2755.32,692.53 2757.88,693.27L2768.14,696.23C2773.55,697.79 2779.17,699.09 2784.6,700.34C2786.06,700.68 2787.52,701.01 2788.98,701.36C2790.32,701.67 2791.16,703.02 2790.84,704.36C2790.59,705.49 2789.57,706.27 2788.43,706.27Z" style="fill:rgb(139,0,255);fill-rule:nonzero;"/>
            </g>
            <g>
                <path d="M2615.89,573.17C2614.78,573.17 2613.76,572.42 2613.47,571.29L2607.46,548.06C2607.11,546.72 2607.92,545.36 2609.25,545.01C2610.59,544.66 2611.95,545.47 2612.3,546.8L2618.31,570.03C2618.66,571.37 2617.85,572.73 2616.52,573.08C2616.31,573.14 2616.09,573.17 2615.89,573.17Z" style="fill:rgb(124,0,255);fill-rule:nonzero;"/>
            </g>
            <g>
                <path d="M2766.79,704.83C2766.56,704.83 2766.33,704.8 2766.1,704.73C2761.06,703.29 2756.02,701.63 2751.15,700.02L2740.96,696.66C2740.45,696.49 2739.93,696.33 2739.42,696.16C2737.08,695.41 2734.67,694.64 2732.34,693.46L2724.45,689.45C2722.58,688.5 2720.77,687.44 2719.01,686.42C2718.22,685.96 2717.44,685.5 2716.65,685.05L2701.27,676.32C2698.9,674.97 2696.75,673.38 2694.67,671.83L2686.55,665.83C2682.19,662.61 2678.01,659.1 2673.96,655.71L2665.91,648.96C2665.65,648.75 2665.4,648.53 2665.14,648.32C2664.2,647.55 2663.23,646.75 2662.33,645.81L2653.15,636.23C2652.48,635.53 2651.79,634.83 2651.1,634.14C2649.7,632.72 2648.25,631.26 2646.91,629.72C2645.57,628.18 2644.31,626.54 2643.11,624.96C2642.52,624.18 2641.92,623.41 2641.32,622.64L2632.99,612.09C2632.75,611.78 2632.5,611.48 2632.25,611.18C2631.54,610.32 2630.81,609.43 2630.17,608.41L2623.17,597.1C2622.44,595.93 2622.81,594.39 2623.98,593.66C2625.15,592.93 2626.69,593.3 2627.42,594.47L2634.42,605.78C2634.88,606.52 2635.47,607.24 2636.1,608.01C2636.37,608.34 2636.64,608.67 2636.91,609L2645.24,619.55C2645.86,620.33 2646.47,621.13 2647.08,621.93C2648.24,623.45 2649.44,625.02 2650.68,626.45C2651.92,627.88 2653.31,629.28 2654.66,630.64C2655.37,631.35 2656.07,632.07 2656.76,632.79L2665.94,642.37C2666.64,643.1 2667.45,643.77 2668.32,644.48C2668.59,644.7 2668.86,644.93 2669.13,645.15L2677.18,651.9C2681.17,655.24 2685.29,658.7 2689.52,661.83L2697.65,667.84C2699.7,669.36 2701.63,670.8 2703.73,671.99L2719.1,680.72C2719.91,681.18 2720.71,681.65 2721.51,682.11C2723.2,683.1 2724.96,684.12 2726.69,685L2734.58,689.01C2736.55,690.01 2738.67,690.69 2740.92,691.41C2741.45,691.58 2741.98,691.75 2742.5,691.92L2752.7,695.28C2757.52,696.87 2762.51,698.52 2767.46,699.93C2768.79,700.31 2769.56,701.69 2769.18,703.02C2768.88,704.11 2767.87,704.83 2766.79,704.83Z" style="fill:rgb(124,0,255);fill-rule:nonzero;"/>
            </g>
            <g>
                <path d="M2718.03,690.34C2717.61,690.34 2717.19,690.24 2716.8,690.02C2711.67,687.12 2706.62,683.93 2701.74,680.86C2700.08,679.82 2698.43,678.77 2696.77,677.74L2686.9,671.59C2685.27,670.58 2683.59,669.53 2681.99,668.19L2667.58,656.12C2666.52,655.23 2666.38,653.66 2667.27,652.6C2668.16,651.54 2669.73,651.4 2670.79,652.29L2685.2,664.36C2686.52,665.47 2687.99,666.38 2689.54,667.35L2699.41,673.5C2701.08,674.54 2702.74,675.59 2704.4,676.63C2709.23,679.68 2714.23,682.83 2719.26,685.67C2720.46,686.35 2720.88,687.88 2720.2,689.08C2719.75,689.88 2718.9,690.34 2718.03,690.34Z" style="fill:rgb(124,0,255);fill-rule:nonzero;"/>
            </g>
            <g>
                <path d="M2652.27,640.36C2651.53,640.36 2650.8,640.03 2650.3,639.41L2636.92,622.43C2636.07,621.35 2636.25,619.77 2637.34,618.92C2638.43,618.06 2640,618.25 2640.85,619.34L2654.23,636.32C2655.08,637.4 2654.9,638.98 2653.81,639.83C2653.36,640.19 2652.81,640.36 2652.27,640.36Z" style="fill:rgb(110,0,255);fill-rule:nonzero;"/>
            </g>
        </g>
    </g>
</svg>
