<?xml version="1.0" encoding="utf-8"?>
<!-- Svg Vector Icons : http://www.onlinewebfonts.com/icon -->
<!DOCTYPE svg PUBLIC "-//W3C//DTD SVG 1.1//EN" "http://www.w3.org/Graphics/SVG/1.1/DTD/svg11.dtd">
<svg version="1.1" xmlns="http://www.w3.org/2000/svg" xmlns:xlink="http://www.w3.org/1999/xlink" x="0px" y="0px" viewBox="0 0 1000 1000" enable-background="new 0 0 1000 1000" xml:space="preserve">
<metadata> Svg Vector Icons : http://www.onlinewebfonts.com/icon </metadata>
<g><path d="M10,500c0,270.6,219.4,490,490,490c270.6,0,490-219.4,490-490c0-270.6-219.4-490-490-490C229.4,10,10,229.4,10,500L10,500z"/><path d="M571.9,502.3L799,275.2c17.7-17.7,17.7-46.3,0-64s-46.3-17.7-64,0L507.9,438.3L280.8,211.2c-17.7-17.7-46.3-17.7-64,0c-17.7,17.7-17.7,46.3,0,64l227.1,227.1L216.9,729.3c-17.7,17.7-17.7,46.3,0,64c8.8,8.8,20.4,13.2,32,13.2c11.6,0,23.2-4.4,32-13.2l227.1-227.1L735,793.3c8.8,8.8,20.4,13.2,32,13.2c11.6,0,23.2-4.4,32-13.2c17.7-17.7,17.7-46.3,0-64L571.9,502.3z"/></g>
</svg>